<svg xmlns="http://www.w3.org/2000/svg" viewBox="0 0 128.03 122.8125" x="0px" y="0px"><title>Fichier 74</title><g data-name="Calque 2"><g data-name="Слой 1"><path d="M125.47,10.3H114.78V2.56a2.56,2.56,0,0,0-3.1-2.5L64,10.24,16.34.06a2.56,2.56,0,0,0-3.1,2.5V10.3H2.56A2.56,2.56,0,0,0,0,12.86V95.69a2.56,2.56,0,0,0,2.56,2.56H125.47A2.56,2.56,0,0,0,128,95.69V12.86A2.56,2.56,0,0,0,125.47,10.3Zm-15.8,73L66.57,92.52V14.93l43.09-9.21ZM18.36,5.72l43.09,9.21V92.52L18.36,83.32ZM5.12,15.42h8.12v70a2.56,2.56,0,0,0,2,2.5l24.51,5.24H5.12ZM122.91,93.13H88.25l24.51-5.24a2.56,2.56,0,0,0,2-2.5v-70h8.12Z"/></g></g><text x="0" y="113.25" fill="#000000" font-size="5px" font-weight="bold" font-family="'Helvetica Neue', Helvetica, Arial-Unicode, Arial, Sans-serif">Created by VM Design</text><text x="0" y="118.25" fill="#000000" font-size="5px" font-weight="bold" font-family="'Helvetica Neue', Helvetica, Arial-Unicode, Arial, Sans-serif">from the Noun Project</text></svg>