<svg xmlns="http://www.w3.org/2000/svg" xmlns:xlink="http://www.w3.org/1999/xlink" version="1.1" x="0px" y="0px" viewBox="0 0 100 125" style="enable-background:new 0 0 100 100;" xml:space="preserve"><style type="text/css">
	.st0{fill-rule:evenodd;clip-rule:evenodd;}
</style><g><path d="M66.4,16.1C59,8.7,49.4,5,40,5c-9,0-18,3.4-24.7,10.2c-13.9,14-13.5,37,0.9,51.5L9,73.9c7.5,7.6,17.4,11.3,27.4,11.3   c10.4,0,21-4.1,29.1-12.2C81.3,57,81.7,31.6,66.4,16.1z M36.4,79.8c-7.1,0-13.8-2.2-19.4-6.2l3-3.1c2.1-2.1,2.1-5.6,0-7.7   C7.8,50.5,7.4,30.9,19.1,19c5.5-5.5,12.9-8.6,20.9-8.6c8.4,0,16.4,3.4,22.6,9.5c13.2,13.3,12.8,35.3-0.9,49.2   C54.8,76,45.8,79.8,36.4,79.8z"/><path d="M92.2,45.2c-1.9-3.8-4.5-7.1-7.9-9.7c-1.2-0.9-2.9-0.7-3.8,0.5c-0.9,1.2-0.7,2.9,0.5,3.8c2.7,2.1,4.9,4.8,6.4,7.8   c5.5,11.2,0,25-12.5,31.3c-0.7,0.3-1.2,0.9-1.4,1.6s-0.1,1.5,0.2,2.1l2.9,5.3c-7.4,2.8-15.8,2-22.8-2.4c-1.3-0.8-3-0.4-3.8,0.9   c-0.8,1.3-0.4,3,0.9,3.8c5.2,3.2,11,4.9,16.8,4.9c4.8,0,9.5-1.1,14-3.4c0.7-0.3,1.2-0.9,1.4-1.6s0.1-1.5-0.2-2.1l-3-5.5   C93.1,74.2,98.6,58.3,92.2,45.2z"/></g><text x="0" y="115" fill="#000000" font-size="5px" font-weight="bold" font-family="'Helvetica Neue', Helvetica, Arial-Unicode, Arial, Sans-serif">Created by ermankutlu</text><text x="0" y="120" fill="#000000" font-size="5px" font-weight="bold" font-family="'Helvetica Neue', Helvetica, Arial-Unicode, Arial, Sans-serif">from the Noun Project</text></svg>