<svg height='100px' width='100px'  fill="#000000" xmlns="http://www.w3.org/2000/svg" xmlns:xlink="http://www.w3.org/1999/xlink" version="1.1" x="0px" y="0px" viewBox="0 0 90 90" style="enable-background:new 0 0 90 90;" xml:space="preserve"><path d="M17.9,48c-2.5,3.7-4.6,7.3-5.6,10.9l12.7,2.2L17.9,48z"></path><path d="M50.4,71.2l-14.7-2.6L41.9,80C44.9,77.9,47.6,74.8,50.4,71.2z"></path><path d="M30.7,33.2c-3,2.1-5.8,5.2-8.5,8.8L37,44.6L30.7,33.2z"></path><polygon points="40.4,50.8 24.3,48 32.2,62.3 48.3,65.1 "></polygon><path d="M28.6,67.4l-16.8-2.9c0.4,4.4,3.1,8.8,9.3,13.3s11.3,5.6,15.6,4.5L28.6,67.4z"></path><path d="M54.7,65.2c2.5-3.7,4.6-7.3,5.6-10.9l-12.7-2.2L54.7,65.2z"></path><path d="M46.9,32.7c-4.2-2.1-7.8-2.6-11.1-1.8L44,45.8l16.8,2.9c-0.3-3.3-1.9-6.6-5.3-9.9c3.9,0,7.8-0.7,11.4-2.1  c5.4-2.2,9.2-5.7,11.3-9.9c-4.8-0.8-9.7-0.7-14.3,0.5c0.3-0.3,0.5-0.7,0.8-1c4.1-5.7,6.2-12.2,6.4-18.3c-5.8,2.2-11.2,6.3-15.3,12  c-0.3,0.4-0.5,0.7-0.7,1.1c-0.3-4.7-1.8-9.4-4.1-13.7c-3.3,3.3-5.4,8-5.7,13.8C45,25,45.7,28.9,46.9,32.7z"></path></svg>